<svg width="32" height="32" viewBox="0 0 32 32" fill="none" xmlns="http://www.w3.org/2000/svg">
  <!-- Inventer Design Studio Logo -->
  <rect width="32" height="32" rx="6" fill="#000000"/>
  
  <!-- Letter "I" for Inventer -->
  <rect x="8" y="6" width="3" height="20" fill="#ffffff"/>
  <rect x="6" y="6" width="7" height="3" fill="#ffffff"/>
  
  <!-- Letter "D" for Design -->
  <path d="M12 6 L12 26 L18 26 Q22 26 22 16 Q22 6 18 6 L12 6 Z M15 9 L18 9 Q20 9 20 16 Q20 23 18 23 L15 23 L15 9 Z" fill="#ffffff"/>
  
  <!-- Letter "S" for Studio -->
  <path d="M24 9 Q24 6 21 6 L21 9 Q21 7 22 7 Q23 7 23 8 Q23 9 22 9 L21 9 L21 12 Q21 15 24 15 Q27 15 27 12 Q27 9 24 9 Z M24 12 Q24 14 21 14 L21 12 Q21 13 22 13 Q23 13 23 12 Q23 11 22 11 L21 11 L21 8 Q21 5 24 5 Q27 5 27 8 Q27 11 24 11 L24 12 Z" fill="#ffffff"/>
</svg>