<svg width="200" height="60" viewBox="0 0 200 60" fill="none" xmlns="http://www.w3.org/2000/svg">
  <!-- Inventer Design Studio Logo -->
  
  <!-- Main Logo Icon -->
  <rect x="10" y="10" width="40" height="40" rx="8" fill="#000000"/>
  
  <!-- Letter "I" for Inventer -->
  <rect x="18" y="18" width="4" height="24" fill="#ffffff"/>
  <rect x="16" y="18" width="8" height="4" fill="#ffffff"/>
  
  <!-- Letter "D" for Design -->
  <path d="M26 18 L26 42 L34 42 Q40 42 40 30 Q40 18 34 18 L26 18 Z M30 22 L34 22 Q38 22 38 30 Q38 38 34 38 L30 38 L30 22 Z" fill="#ffffff"/>
  
  <!-- Letter "S" for Studio -->
  <path d="M42 22 Q42 18 38 18 L38 22 Q38 20 40 20 Q42 20 42 22 Q42 24 40 24 L38 24 L38 28 Q38 32 42 32 Q46 32 46 28 Q46 24 42 24 Z M42 28 Q42 30 38 30 L38 28 Q38 29 40 29 Q42 29 42 28 Q42 27 40 27 L38 27 L38 24 Q38 20 42 20 Q46 20 46 24 Q46 28 42 28 L42 28 Z" fill="#ffffff"/>
  
  <!-- Company Name -->
  <text x="60" y="25" font-family="Arial, sans-serif" font-size="16" font-weight="bold" fill="#000000">Inventer Design Studio</text>
  <text x="60" y="40" font-family="Arial, sans-serif" font-size="10" fill="#6b7280">WhatsApp Business API</text>
</svg>
